<svg width="294" height="134" viewBox="0 0 294 134" fill="none" xmlns="http://www.w3.org/2000/svg">
<g clip-path="url(#clip0_14_2543)">
<path d="M159 21.1667H158.35C158.55 20.6332 158.657 20.0695 158.667 19.5C158.632 18.1443 158.062 16.8575 157.081 15.9207C156.101 14.9839 154.789 14.4731 153.433 14.5C152.101 14.5288 150.801 14.9153 149.669 15.619C148.537 16.3227 147.615 17.3178 147 18.5C146.385 17.3178 145.463 16.3227 144.331 15.619C143.199 14.9153 141.899 14.5288 140.567 14.5C139.211 14.4731 137.899 14.9839 136.919 15.9207C135.938 16.8575 135.368 18.1443 135.333 19.5C135.343 20.0695 135.45 20.6332 135.65 21.1667H135C134.561 21.2083 134.135 21.3365 133.747 21.5438C133.358 21.751 133.014 22.0333 132.735 22.3743C132.456 22.7152 132.248 23.1081 132.121 23.5302C131.995 23.9523 131.954 24.3952 132 24.8333V30.8333C131.922 31.6404 132.13 32.4492 132.586 33.1191C133.043 33.789 133.72 34.2777 134.5 34.5V41.7833C134.551 42.5393 134.895 43.2456 135.458 43.7526C136.021 44.2597 136.759 44.5277 137.517 44.5H156.483C157.251 44.5271 157.999 44.25 158.564 43.7288C159.129 43.2076 159.465 42.4845 159.5 41.7167V34.5C160.28 34.2777 160.957 33.789 161.414 33.1191C161.87 32.4492 162.078 31.6404 162 30.8333V24.8333C162.046 24.3952 162.005 23.9523 161.878 23.5302C161.752 23.1081 161.544 22.7152 161.265 22.3743C160.986 22.0333 160.642 21.751 160.253 21.5438C159.864 21.3365 159.438 21.2083 159 21.1667ZM158.667 24.8333V30.8333C158.687 30.9435 158.687 31.0565 158.667 31.1667H148.667V24.5H158.667C158.687 24.6102 158.687 24.7231 158.667 24.8333ZM153.433 17.8333C153.905 17.8058 154.369 17.9652 154.725 18.2771C155.081 18.589 155.299 19.0283 155.333 19.5C155.299 19.9717 155.081 20.411 154.725 20.7229C154.369 21.0348 153.905 21.1942 153.433 21.1667H149.333C149.625 20.2763 150.166 19.4886 150.893 18.8976C151.62 18.3065 152.502 17.9371 153.433 17.8333ZM138.667 19.5C138.701 19.0283 138.919 18.589 139.275 18.2771C139.63 17.9652 140.094 17.8058 140.567 17.8333C141.495 17.9401 142.373 18.3109 143.097 18.9017C143.82 19.4926 144.359 20.2786 144.65 21.1667H140.567C140.094 21.1942 139.63 21.0348 139.275 20.7229C138.919 20.411 138.701 19.9717 138.667 19.5ZM135.333 24.8333C135.313 24.7231 135.313 24.6102 135.333 24.5H145.333V31.1667H135.333C135.313 31.0565 135.313 30.9435 135.333 30.8333V24.8333ZM137.833 34.5H145.333V41.1667H137.833V34.5ZM148.667 41.1667V34.5H156.167V41.1667H148.667Z" fill="#FFAE64"/>
</g>
<path d="M53.2422 91.6562C53.138 91.5521 53.0859 91.3307 53.0859 90.9922C53.0859 90.4974 53.125 90.25 53.2031 90.25C53.5156 90.25 53.9714 90.1589 54.5703 89.9766C55.1953 89.7943 55.7682 89.5599 56.2891 89.2734C56.8359 88.9609 57.1224 88.6224 57.1484 88.2578L57.3047 86.3828C57.5911 81.7214 57.7604 77.8411 57.8125 74.7422C57.8646 71.6432 57.9297 69.5859 58.0078 68.5703C58.0078 68.2839 57.9688 68.0495 57.8906 67.8672C57.8385 67.7109 57.6172 67.5807 57.2266 67.4766C56.8359 67.3464 56.4193 67.2422 55.9766 67.1641C55.5599 67.0859 55.2344 67.0469 55 67.0469C54.8958 67.0469 54.8438 66.7734 54.8438 66.2266C54.8438 65.9401 54.8958 65.7448 55 65.6406C55.2604 65.6406 55.651 65.6667 56.1719 65.7188C56.7188 65.7448 57.2917 65.7839 57.8906 65.8359C58.5156 65.862 59.0495 65.875 59.4922 65.875C59.8568 65.875 60.3125 65.862 60.8594 65.8359C61.4323 65.7839 61.9792 65.7448 62.5 65.7188C63.0208 65.6667 63.3854 65.6406 63.5938 65.6406C63.724 66.0573 64.0495 66.8776 64.5703 68.1016C65.1172 69.3255 65.8594 70.9531 66.7969 72.9844C67.7344 75.0417 68.5547 76.8646 69.2578 78.4531C69.9609 80.0156 70.5339 81.3698 70.9766 82.5156H71.0547C71.1068 82.5156 71.1328 82.5026 71.1328 82.4766C72.1224 80.0026 73.0208 77.737 73.8281 75.6797C74.6354 73.6224 75.3255 71.7865 75.8984 70.1719L77.1875 65.7969C77.4219 65.8229 77.7995 65.849 78.3203 65.875C78.8672 65.875 79.5443 65.875 80.3516 65.875L85.2734 65.6406C85.3776 65.7708 85.4297 65.9792 85.4297 66.2656C85.4297 66.8125 85.3646 67.0859 85.2344 67.0859H85.1953C84.5443 67.0859 83.9974 67.2422 83.5547 67.5547C83.138 67.8411 82.9557 68.375 83.0078 69.1562L83.7891 85.5625C83.8672 87.125 84.0625 88.3229 84.375 89.1562C84.4531 89.3125 84.6354 89.4688 84.9219 89.625C85.2344 89.7812 85.5599 89.9245 85.8984 90.0547C86.237 90.1589 86.4844 90.2109 86.6406 90.2109C86.7448 90.2109 86.7969 90.4714 86.7969 90.9922C86.7969 91.2266 86.7708 91.4479 86.7188 91.6562C86.5365 91.6302 86.1328 91.5911 85.5078 91.5391C84.8828 91.513 84.2188 91.474 83.5156 91.4219C82.8125 91.3698 82.2266 91.3438 81.7578 91.3438C81.2891 91.3438 80.651 91.3698 79.8438 91.4219C79.0365 91.474 78.2682 91.513 77.5391 91.5391C76.8359 91.5911 76.3542 91.6302 76.0938 91.6562C75.9635 91.526 75.8984 91.3177 75.8984 91.0312C75.8984 90.4844 75.9375 90.2109 76.0156 90.2109C76.224 90.2109 76.4974 90.1589 76.8359 90.0547C77.1745 89.9245 77.5 89.7812 77.8125 89.625C78.151 89.4427 78.3594 89.2734 78.4375 89.1172C78.6458 88.7005 78.75 88.3359 78.75 88.0234C78.75 87.737 78.737 87.3984 78.7109 87.0078C78.7109 86.6172 78.6979 86.1875 78.6719 85.7188L78.3594 75.7969C78.2552 74.0521 78.151 73.1797 78.0469 73.1797C77.9948 73.1797 77.9297 73.2708 77.8516 73.4531L71.0938 90.2891C70.9896 90.5495 70.7812 90.8359 70.4688 91.1484C70.1562 91.4349 69.8438 91.5781 69.5312 91.5781C69.5052 91.5781 69.388 91.5521 69.1797 91.5L60.5859 72.2031L59.9219 87.2422C59.9219 87.6068 59.9219 87.9062 59.9219 88.1406C59.9219 88.375 59.9349 88.5443 59.9609 88.6484C60.013 88.8047 60.1953 88.974 60.5078 89.1562C60.8464 89.3385 61.237 89.5078 61.6797 89.6641C62.1224 89.8203 62.5391 89.9505 62.9297 90.0547C63.3464 90.1589 63.6328 90.2109 63.7891 90.2109C63.8932 90.2109 63.9453 90.4714 63.9453 90.9922C63.9453 91.2266 63.9193 91.4479 63.8672 91.6562C62.3047 91.6562 61.1198 91.6432 60.3125 91.6172C59.5312 91.5911 58.9714 91.5651 58.6328 91.5391C58.2943 91.513 58.0469 91.5 57.8906 91.5C57.7344 91.474 57.5391 91.4609 57.3047 91.4609C57.0703 91.4609 56.6536 91.474 56.0547 91.5C55.4557 91.526 54.5182 91.5781 53.2422 91.6562ZM93.7109 91.7734C92.2786 91.7734 91.1328 91.3828 90.2734 90.6016C89.4401 89.7943 89.0234 88.7917 89.0234 87.5938C89.0234 86.5781 89.3359 85.6927 89.9609 84.9375C90.612 84.1823 91.4193 83.5833 92.3828 83.1406C92.7474 82.9844 93.0859 82.8542 93.3984 82.75C93.7109 82.6198 93.9974 82.5026 94.2578 82.3984C95.2474 82.0859 96.0417 81.8646 96.6406 81.7344C97.2396 81.5781 97.6823 81.4479 97.9688 81.3438C98.2031 81.2656 98.3203 81.0703 98.3203 80.7578V79.3516C98.3203 77.2161 97.6693 76.1484 96.3672 76.1484C94.8568 76.1484 94.1016 77.0208 94.1016 78.7656C94.1016 79.3385 93.8672 79.7682 93.3984 80.0547C92.9297 80.3151 92.4089 80.4453 91.8359 80.4453C90.638 80.4453 89.8177 80.0547 89.375 79.2734C89.375 78.5964 89.6094 77.9453 90.0781 77.3203C90.5729 76.6953 91.2109 76.1354 91.9922 75.6406C92.7995 75.1198 93.6979 74.7161 94.6875 74.4297C95.7031 74.1172 96.7188 73.9609 97.7344 73.9609C99.5573 73.9609 100.951 74.4688 101.914 75.4844C102.904 76.474 103.398 78.2839 103.398 80.9141V87.2422C103.398 88.1276 103.711 88.5703 104.336 88.5703C104.805 88.5703 105.247 88.401 105.664 88.0625C105.846 88.1667 105.938 88.362 105.938 88.6484C105.938 89.3255 105.846 89.8073 105.664 90.0938C105.299 90.4323 104.701 90.7969 103.867 91.1875C103.06 91.5521 102.292 91.7344 101.562 91.7344C100.938 91.7344 100.339 91.5521 99.7656 91.1875C99.1927 90.7969 98.8151 90.3542 98.6328 89.8594C98.6068 89.8594 98.4635 89.9505 98.2031 90.1328C97.9427 90.3151 97.7474 90.4583 97.6172 90.5625C97.0964 90.901 96.4974 91.1875 95.8203 91.4219C95.1432 91.6562 94.4401 91.7734 93.7109 91.7734ZM96.1719 88.9609C96.849 88.9609 97.3698 88.8047 97.7344 88.4922C98.125 88.1536 98.3203 87.75 98.3203 87.2812V83.3359L96.2891 84.0391C95.7422 84.2214 95.2344 84.4948 94.7656 84.8594C94.3229 85.224 94.1016 85.7057 94.1016 86.3047C94.1016 87.2422 94.2969 87.9193 94.6875 88.3359C95.1042 88.7526 95.599 88.9609 96.1719 88.9609ZM108.086 91.6562C107.982 91.5521 107.93 91.2786 107.93 90.8359C107.93 90.4193 107.982 90.2109 108.086 90.2109C108.294 90.2109 108.594 90.1589 108.984 90.0547C109.375 89.9245 109.74 89.7812 110.078 89.625C110.417 89.4688 110.599 89.3385 110.625 89.2344C110.807 88.5052 110.898 87.5156 110.898 86.2656V70.7578C110.898 70.1589 110.872 69.625 110.82 69.1562C110.794 68.6875 110.755 68.2839 110.703 67.9453C110.599 67.5286 109.922 67.3203 108.672 67.3203H108.32C108.164 67.3203 108.086 67.0599 108.086 66.5391C108.086 66.0964 108.164 65.875 108.32 65.875C109.336 65.7708 110.312 65.6276 111.25 65.4453C112.214 65.263 113.06 65.0807 113.789 64.8984C114.544 64.6901 115.104 64.5469 115.469 64.4688L115.938 64.3516C116.042 64.3255 116.146 64.4036 116.25 64.5859C116.354 64.7422 116.419 64.8854 116.445 65.0156C116.133 66.1875 115.977 67.5026 115.977 68.9609V81.3828C116.68 81.1745 117.122 81.0052 117.305 80.875C117.826 80.4323 118.372 79.9635 118.945 79.4688C119.544 78.974 120.091 78.5052 120.586 78.0625C121.029 77.6719 121.354 77.3594 121.562 77.125C121.797 76.8646 121.914 76.6042 121.914 76.3438C121.914 75.9792 121.693 75.7969 121.25 75.7969C120.807 75.7708 120.43 75.7318 120.117 75.6797C120.091 75.5755 120.065 75.4583 120.039 75.3281C120.039 75.1979 120.039 75.0417 120.039 74.8594C120.039 74.4948 120.091 74.2995 120.195 74.2734L124.648 74.3125C125.404 74.3125 126.12 74.3125 126.797 74.3125C127.5 74.2865 128.138 74.2604 128.711 74.2344C128.815 74.2604 128.867 74.4036 128.867 74.6641C128.893 74.8984 128.893 75.1328 128.867 75.3672C128.841 75.5755 128.802 75.6797 128.75 75.6797C127.969 75.6797 127.057 75.9792 126.016 76.5781C124.219 77.6198 122.435 79.0391 120.664 80.8359C122.695 83.0495 124.336 84.9115 125.586 86.4219C126.862 87.9062 127.747 88.8307 128.242 89.1953C128.581 89.4818 129.023 89.7292 129.57 89.9375C130.117 90.1198 130.508 90.2109 130.742 90.2109C130.872 90.2109 130.938 90.4583 130.938 90.9531C130.938 91.2396 130.911 91.4609 130.859 91.6172L125.938 91.3828C125.625 91.3568 125.221 91.3698 124.727 91.4219C124.232 91.4479 123.646 91.487 122.969 91.5391L120.742 91.6562C120.638 91.5521 120.586 91.2786 120.586 90.8359C120.586 90.4193 120.638 90.2109 120.742 90.2109C121.003 90.2109 121.302 90.1589 121.641 90.0547C121.979 89.9505 122.148 89.8333 122.148 89.7031C122.148 89.651 122.135 89.612 122.109 89.5859L116.406 83.0625L115.977 83.1797V85.6797C115.977 87.3984 116.068 88.5833 116.25 89.2344C116.302 89.3385 116.497 89.4688 116.836 89.625C117.174 89.7812 117.526 89.9245 117.891 90.0547C118.281 90.1589 118.555 90.2109 118.711 90.2109C118.763 90.2109 118.802 90.3151 118.828 90.5234C118.854 90.7318 118.867 90.9531 118.867 91.1875C118.867 91.4219 118.841 91.5781 118.789 91.6562C118.633 91.6562 118.333 91.6302 117.891 91.5781C117.448 91.5521 116.927 91.526 116.328 91.5C115.755 91.4479 115.208 91.4089 114.688 91.3828C114.167 91.3568 113.75 91.3438 113.438 91.3438C113.125 91.3438 112.695 91.3568 112.148 91.3828C111.628 91.4089 111.081 91.4479 110.508 91.5C109.935 91.526 109.427 91.5521 108.984 91.5781C108.542 91.6302 108.242 91.6562 108.086 91.6562ZM140.508 91.7734C138.919 91.7734 137.448 91.3698 136.094 90.5625C134.766 89.7552 133.698 88.6745 132.891 87.3203C132.109 85.9661 131.719 84.4818 131.719 82.8672C131.719 81.2005 132.07 79.7031 132.773 78.375C133.503 77.0469 134.505 75.9922 135.781 75.2109C137.057 74.4297 138.529 74.0391 140.195 74.0391C141.836 74.0391 143.229 74.4297 144.375 75.2109C145.547 75.9661 146.432 76.9167 147.031 78.0625C147.656 79.1823 147.969 80.3151 147.969 81.4609C147.969 82.0599 147.839 82.4505 147.578 82.6328C147.344 82.8151 146.862 82.9062 146.133 82.9062H137.305C137.148 82.9062 137.07 82.9974 137.07 83.1797C137.07 84.1172 137.24 85.0026 137.578 85.8359C137.943 86.6693 138.464 87.3464 139.141 87.8672C139.844 88.388 140.69 88.6484 141.68 88.6484C142.565 88.6484 143.385 88.5182 144.141 88.2578C144.661 88.1016 145.065 87.9583 145.352 87.8281C145.638 87.6979 145.898 87.5547 146.133 87.3984C146.393 87.2161 146.693 86.9948 147.031 86.7344C147.266 86.8385 147.383 87.0859 147.383 87.4766C147.383 87.8151 147.331 88.0755 147.227 88.2578C147.07 88.6745 146.654 89.1562 145.977 89.7031C145.326 90.25 144.518 90.7318 143.555 91.1484C142.617 91.5651 141.602 91.7734 140.508 91.7734ZM137.344 80.7578H142.305C142.669 80.7578 142.852 80.5104 142.852 80.0156C142.852 79.026 142.578 78.1406 142.031 77.3594C141.51 76.5781 140.833 76.1875 140 76.1875C139.245 76.1875 138.646 76.4609 138.203 77.0078C137.786 77.5286 137.487 78.1146 137.305 78.7656C137.148 79.4167 137.07 79.9505 137.07 80.3672C137.07 80.6276 137.161 80.7578 137.344 80.7578ZM164.453 92.0078C164.297 92.0078 164.18 91.9427 164.102 91.8125L153.516 70.9141C153.177 70.237 152.852 69.651 152.539 69.1562C152.253 68.6354 151.979 68.2188 151.719 67.9062C151.51 67.6458 151.146 67.4505 150.625 67.3203C150.13 67.1641 149.714 67.0859 149.375 67.0859C149.271 67.0859 149.219 66.8385 149.219 66.3438C149.219 65.9271 149.245 65.6927 149.297 65.6406L154.844 65.875C155.26 65.875 157.031 65.7969 160.156 65.6406C160.208 65.7969 160.234 66.0703 160.234 66.4609C160.26 66.8516 160.234 67.0599 160.156 67.0859C158.958 67.0859 158.359 67.5286 158.359 68.4141L158.828 69.625L166.016 83.8828C166.146 84.2214 166.341 84.1562 166.602 83.6875L169.023 79.3906L164.727 70.9141C163.919 69.2995 163.359 68.349 163.047 68.0625C162.396 67.4115 161.641 67.0859 160.781 67.0859C160.677 67.0859 160.625 66.8385 160.625 66.3438C160.625 65.9271 160.651 65.6927 160.703 65.6406L166.133 65.875C166.445 65.875 168.164 65.7969 171.289 65.6406C171.341 65.7969 171.367 66.0703 171.367 66.4609C171.393 66.8516 171.367 67.0599 171.289 67.0859C170.872 67.0859 170.469 67.1901 170.078 67.3984C169.688 67.5807 169.492 67.8932 169.492 68.3359L169.961 69.5469L172.227 74.0391L174.102 70.3281C174.388 69.8073 174.583 69.3776 174.688 69.0391C174.818 68.6745 174.883 68.4271 174.883 68.2969C174.883 67.9844 174.727 67.737 174.414 67.5547C174.102 67.3724 173.724 67.2422 173.281 67.1641C172.839 67.0859 172.409 67.0469 171.992 67.0469C171.94 67.0469 171.888 66.9427 171.836 66.7344C171.81 66.526 171.81 66.3047 171.836 66.0703C171.862 65.8359 171.901 65.6927 171.953 65.6406C173.203 65.7188 174.219 65.7839 175 65.8359C175.781 65.888 176.315 65.901 176.602 65.875L181.484 65.6406C181.536 65.7969 181.562 66.0703 181.562 66.4609C181.589 66.8255 181.562 67.0208 181.484 67.0469C181.094 67.0469 180.586 67.1771 179.961 67.4375C179.336 67.6719 178.893 67.9323 178.633 68.2188C177.904 68.974 177.174 70.0938 176.445 71.5781L173.711 76.9688L177.109 83.6484C177.24 83.9349 177.409 83.8828 177.617 83.4922L184.297 70.25C184.766 69.3125 185 68.6615 185 68.2969C185 67.9844 184.831 67.737 184.492 67.5547C184.154 67.3724 183.763 67.2422 183.32 67.1641C182.904 67.0859 182.539 67.0469 182.227 67.0469C182.174 67.0469 182.122 66.9427 182.07 66.7344C182.044 66.526 182.044 66.3047 182.07 66.0703C182.096 65.8359 182.135 65.6927 182.188 65.6406C183.438 65.7188 184.453 65.7839 185.234 65.8359C186.016 65.888 186.549 65.901 186.836 65.875L191.719 65.6406C191.797 65.8229 191.836 66.1484 191.836 66.6172C191.836 66.9036 191.797 67.0469 191.719 67.0469C191.328 67.0469 190.833 67.1641 190.234 67.3984C189.635 67.6328 189.206 67.8802 188.945 68.1406C188.216 68.8958 187.461 70.0417 186.68 71.5781L177.031 90.7578C176.589 91.5911 176.146 92.0078 175.703 92.0078C175.495 92.0078 175.352 91.9427 175.273 91.8125L170.469 82.3984L165.781 90.7578C165.312 91.5911 164.87 92.0078 164.453 92.0078ZM191.562 91.6562C191.458 91.5521 191.406 91.3047 191.406 90.9141C191.406 90.5234 191.458 90.3281 191.562 90.3281C191.771 90.3281 192.044 90.276 192.383 90.1719C192.721 90.0677 193.047 89.9375 193.359 89.7812C193.672 89.625 193.841 89.4818 193.867 89.3516C194.049 88.6224 194.141 87.6328 194.141 86.3828V80.6797C194.141 79.2214 193.906 78.2448 193.438 77.75C193.229 77.4896 192.943 77.3073 192.578 77.2031C192.24 77.099 191.94 77.0339 191.68 77.0078C191.419 76.9557 191.289 76.9036 191.289 76.8516C191.289 76.0964 191.354 75.7188 191.484 75.7188C191.719 75.7188 192.148 75.6667 192.773 75.5625C193.398 75.4583 194.089 75.3281 194.844 75.1719C195.625 75.0156 196.354 74.8594 197.031 74.7031C197.734 74.5469 198.268 74.4167 198.633 74.3125L199.062 74.1953C199.193 74.1953 199.323 74.2865 199.453 74.4688C199.583 74.625 199.648 74.7552 199.648 74.8594C199.518 76.0052 199.414 76.9036 199.336 77.5547C199.258 78.2057 199.219 78.6094 199.219 78.7656V85.7969C199.219 87.2812 199.323 88.4661 199.531 89.3516C199.583 89.4557 199.753 89.5859 200.039 89.7422C200.352 89.8984 200.677 90.0417 201.016 90.1719C201.354 90.276 201.589 90.3281 201.719 90.3281C201.797 90.3281 201.836 90.5234 201.836 90.9141C201.862 91.3047 201.849 91.5521 201.797 91.6562C201.589 91.6302 201.146 91.5911 200.469 91.5391C199.818 91.513 199.128 91.474 198.398 91.4219C197.669 91.3698 197.096 91.3438 196.68 91.3438C196.263 91.3438 195.69 91.3698 194.961 91.4219C194.232 91.474 193.542 91.513 192.891 91.5391C192.24 91.5911 191.797 91.6302 191.562 91.6562ZM196.484 70.3281C195.677 70.3281 194.987 70.0547 194.414 69.5078C193.867 68.9349 193.594 68.2448 193.594 67.4375C193.594 66.6302 193.867 65.9531 194.414 65.4062C194.987 64.8333 195.677 64.5469 196.484 64.5469C197.292 64.5469 197.969 64.8333 198.516 65.4062C199.089 65.9531 199.375 66.6302 199.375 67.4375C199.375 68.2448 199.089 68.9349 198.516 69.5078C197.969 70.0547 197.292 70.3281 196.484 70.3281ZM210.234 91.8906C209.635 91.8906 208.971 91.8255 208.242 91.6953C207.513 91.5651 206.836 91.3828 206.211 91.1484C205.586 90.9141 205.104 90.6667 204.766 90.4062C204.453 88.6094 204.297 87.0208 204.297 85.6406C204.427 85.5625 204.622 85.5234 204.883 85.5234C205.716 85.5234 206.146 85.6406 206.172 85.875C206.615 88.4531 208.021 89.7422 210.391 89.7422C211.016 89.7422 211.536 89.599 211.953 89.3125C212.37 89.026 212.578 88.5964 212.578 88.0234C212.578 87.4766 212.357 87.0078 211.914 86.6172C211.471 86.2266 210.951 85.875 210.352 85.5625C209.753 85.25 209.206 84.9635 208.711 84.7031C207.201 83.974 206.081 83.1797 205.352 82.3203C204.622 81.4349 204.258 80.3542 204.258 79.0781C204.258 77.8802 204.57 76.9167 205.195 76.1875C205.82 75.4323 206.654 74.8724 207.695 74.5078C208.737 74.1432 209.857 73.9609 211.055 73.9609C213.32 73.9609 215.013 74.2214 216.133 74.7422C216.393 75.888 216.523 77.5026 216.523 79.5859C216.523 79.8203 216.354 79.9375 216.016 79.9375C215.208 79.9375 214.779 79.8333 214.727 79.625C214.492 78.5312 214.089 77.6719 213.516 77.0469C212.969 76.4219 212.083 76.1094 210.859 76.1094C210.286 76.1094 209.818 76.2526 209.453 76.5391C209.089 76.7995 208.906 77.1901 208.906 77.7109C208.906 78.3099 209.167 78.8307 209.688 79.2734C210.208 79.6901 210.977 80.1458 211.992 80.6406C212.852 81.0312 213.685 81.487 214.492 82.0078C215.299 82.5026 215.951 83.1276 216.445 83.8828C216.966 84.612 217.227 85.5365 217.227 86.6562C217.227 88.375 216.562 89.6771 215.234 90.5625C213.932 91.4479 212.266 91.8906 210.234 91.8906ZM219.57 91.6562C219.466 91.5521 219.414 91.2786 219.414 90.8359C219.414 90.4193 219.466 90.2109 219.57 90.2109C219.779 90.2109 220.078 90.1589 220.469 90.0547C220.859 89.9245 221.224 89.7812 221.562 89.625C221.901 89.4688 222.083 89.3385 222.109 89.2344C222.292 88.5052 222.383 87.5156 222.383 86.2656V70.7578C222.383 70.1589 222.357 69.625 222.305 69.1562C222.279 68.6875 222.24 68.2839 222.188 67.9453C222.083 67.5286 221.406 67.3203 220.156 67.3203H219.805C219.648 67.3203 219.57 67.0599 219.57 66.5391C219.57 66.0964 219.648 65.875 219.805 65.875C221.315 65.7448 222.734 65.5234 224.062 65.2109C225.417 64.8984 226.38 64.651 226.953 64.4688L227.344 64.3516H227.422C227.526 64.3516 227.63 64.4297 227.734 64.5859C227.839 64.7422 227.904 64.8854 227.93 65.0156C227.617 66.1875 227.461 67.5026 227.461 68.9609V76.2266C227.461 76.4089 227.513 76.5 227.617 76.5C227.643 76.5 227.708 76.4479 227.812 76.3438C228.385 75.6927 229.193 75.1589 230.234 74.7422C231.276 74.2995 232.357 74.0781 233.477 74.0781C234.987 74.0781 236.211 74.7161 237.148 75.9922C238.112 77.2682 238.594 79.2083 238.594 81.8125V85.6797C238.594 87.3984 238.685 88.5833 238.867 89.2344C238.919 89.3385 239.115 89.4688 239.453 89.625C239.792 89.7812 240.143 89.9245 240.508 90.0547C240.898 90.1589 241.172 90.2109 241.328 90.2109C241.38 90.2109 241.419 90.3151 241.445 90.5234C241.471 90.7318 241.484 90.9531 241.484 91.1875C241.484 91.4219 241.458 91.5781 241.406 91.6562C241.25 91.6562 240.951 91.6302 240.508 91.5781C240.065 91.5521 239.544 91.526 238.945 91.5C238.372 91.4479 237.826 91.4089 237.305 91.3828C236.784 91.3568 236.367 91.3438 236.055 91.3438C235.638 91.3438 235.052 91.3698 234.297 91.4219C233.568 91.474 232.865 91.513 232.188 91.5391C231.51 91.5911 231.068 91.6302 230.859 91.6562C230.755 91.5521 230.703 91.2786 230.703 90.8359C230.703 90.4193 230.755 90.2109 230.859 90.2109C231.068 90.2109 231.341 90.1589 231.68 90.0547C232.044 89.9245 232.383 89.7812 232.695 89.625C233.034 89.4688 233.216 89.3385 233.242 89.2344C233.424 88.5052 233.516 87.5156 233.516 86.2656V82.75C233.516 80.8229 233.255 79.4557 232.734 78.6484C232.214 77.8151 231.367 77.3984 230.195 77.3984C228.372 77.3984 227.461 77.9714 227.461 79.1172V85.6797C227.461 87.3984 227.552 88.5833 227.734 89.2344C227.786 89.3385 227.969 89.4688 228.281 89.625C228.594 89.7812 228.932 89.9245 229.297 90.0547C229.661 90.1589 229.909 90.2109 230.039 90.2109C230.091 90.2109 230.13 90.3151 230.156 90.5234C230.182 90.7318 230.195 90.9531 230.195 91.1875C230.195 91.4219 230.169 91.5781 230.117 91.6562C229.909 91.6302 229.466 91.5911 228.789 91.5391C228.112 91.513 227.396 91.474 226.641 91.4219C225.911 91.3698 225.339 91.3438 224.922 91.3438C224.609 91.3438 224.18 91.3568 223.633 91.3828C223.112 91.4089 222.565 91.4479 221.992 91.5C221.419 91.526 220.911 91.5521 220.469 91.5781C220.026 91.6302 219.727 91.6562 219.57 91.6562Z" fill="#1F1235"/>
<path d="M36.2024 120.5L33.0206 108.864H34.4524L36.8842 118.341H36.9979L39.4751 108.864H41.0661L43.5433 118.341H43.657L46.0888 108.864H47.5206L44.3388 120.5H42.8842L40.3161 111.227H40.2251L37.657 120.5H36.2024ZM50.4354 115.25V120.5H49.0945V108.864H50.4354V113.136H50.549C50.7536 112.686 51.0604 112.328 51.4695 112.062C51.8823 111.794 52.4316 111.659 53.1172 111.659C53.7119 111.659 54.2327 111.778 54.6797 112.017C55.1267 112.252 55.4732 112.614 55.7195 113.102C55.9695 113.587 56.0945 114.205 56.0945 114.955V120.5H54.7536V115.045C54.7536 114.352 54.5736 113.816 54.2138 113.438C53.8577 113.055 53.3634 112.864 52.7308 112.864C52.2914 112.864 51.8975 112.956 51.549 113.142C51.2043 113.328 50.9316 113.598 50.7308 113.955C50.5339 114.311 50.4354 114.742 50.4354 115.25ZM62.2067 120.682C61.3658 120.682 60.6404 120.496 60.0305 120.125C59.4245 119.75 58.9567 119.227 58.6271 118.557C58.3014 117.883 58.1385 117.098 58.1385 116.205C58.1385 115.311 58.3014 114.523 58.6271 113.841C58.9567 113.155 59.415 112.621 60.0021 112.239C60.593 111.852 61.2824 111.659 62.0703 111.659C62.5249 111.659 62.9737 111.735 63.4169 111.886C63.8601 112.038 64.2635 112.284 64.6271 112.625C64.9908 112.962 65.2805 113.409 65.4964 113.966C65.7124 114.523 65.8203 115.208 65.8203 116.023V116.591H59.093V115.432H64.4567C64.4567 114.939 64.3582 114.5 64.1612 114.114C63.968 113.727 63.6915 113.422 63.3317 113.199C62.9756 112.975 62.5552 112.864 62.0703 112.864C61.5362 112.864 61.0741 112.996 60.6839 113.261C60.2976 113.523 60.0002 113.864 59.7919 114.284C59.5836 114.705 59.4794 115.155 59.4794 115.636V116.409C59.4794 117.068 59.593 117.627 59.8203 118.085C60.0514 118.54 60.3714 118.886 60.7805 119.125C61.1896 119.36 61.665 119.477 62.2067 119.477C62.5589 119.477 62.8771 119.428 63.1612 119.33C63.4491 119.227 63.6972 119.076 63.9055 118.875C64.1139 118.67 64.2749 118.417 64.3885 118.114L65.6839 118.477C65.5476 118.917 65.3184 119.303 64.9964 119.636C64.6745 119.966 64.2768 120.223 63.8033 120.409C63.3298 120.591 62.7976 120.682 62.2067 120.682ZM67.8601 120.5V111.773H69.1555V113.091H69.2464C69.4055 112.659 69.6934 112.309 70.1101 112.04C70.5268 111.771 70.9964 111.636 71.5192 111.636C71.6177 111.636 71.7408 111.638 71.8885 111.642C72.0362 111.646 72.148 111.652 72.2237 111.659V113.023C72.1783 113.011 72.0741 112.994 71.9112 112.972C71.7521 112.945 71.5836 112.932 71.4055 112.932C70.9813 112.932 70.6025 113.021 70.2692 113.199C69.9396 113.373 69.6783 113.616 69.4851 113.926C69.2957 114.233 69.201 114.583 69.201 114.977V120.5H67.8601ZM77.2067 120.682C76.3658 120.682 75.6404 120.496 75.0305 120.125C74.4245 119.75 73.9567 119.227 73.6271 118.557C73.3014 117.883 73.1385 117.098 73.1385 116.205C73.1385 115.311 73.3014 114.523 73.6271 113.841C73.9567 113.155 74.415 112.621 75.0021 112.239C75.593 111.852 76.2824 111.659 77.0703 111.659C77.5249 111.659 77.9737 111.735 78.4169 111.886C78.8601 112.038 79.2635 112.284 79.6271 112.625C79.9908 112.962 80.2805 113.409 80.4964 113.966C80.7124 114.523 80.8203 115.208 80.8203 116.023V116.591H74.093V115.432H79.4567C79.4567 114.939 79.3582 114.5 79.1612 114.114C78.968 113.727 78.6915 113.422 78.3317 113.199C77.9756 112.975 77.5552 112.864 77.0703 112.864C76.5362 112.864 76.0741 112.996 75.6839 113.261C75.2976 113.523 75.0002 113.864 74.7919 114.284C74.5836 114.705 74.4794 115.155 74.4794 115.636V116.409C74.4794 117.068 74.593 117.627 74.8203 118.085C75.0514 118.54 75.3714 118.886 75.7805 119.125C76.1896 119.36 76.665 119.477 77.2067 119.477C77.5589 119.477 77.8771 119.428 78.1612 119.33C78.4491 119.227 78.6972 119.076 78.9055 118.875C79.1139 118.67 79.2749 118.417 79.3885 118.114L80.6839 118.477C80.5476 118.917 80.3184 119.303 79.9964 119.636C79.6745 119.966 79.2768 120.223 78.8033 120.409C78.3298 120.591 77.7976 120.682 77.2067 120.682ZM88.2237 123.773C87.9964 123.773 87.7938 123.754 87.6158 123.716C87.4377 123.682 87.3146 123.648 87.2464 123.614L87.5874 122.432C87.9131 122.515 88.201 122.545 88.451 122.523C88.701 122.5 88.9226 122.388 89.1158 122.188C89.3127 121.991 89.4927 121.67 89.6555 121.227L89.9055 120.545L86.6783 111.773H88.1328L90.5419 118.727H90.6328L93.0419 111.773H94.4964L90.7919 121.773C90.6252 122.223 90.4188 122.597 90.1726 122.892C89.9264 123.191 89.6404 123.413 89.3146 123.557C88.9927 123.701 88.629 123.773 88.2237 123.773ZM99.4993 120.682C98.7114 120.682 98.0201 120.494 97.4254 120.119C96.8345 119.744 96.3724 119.22 96.0391 118.545C95.7095 117.871 95.5447 117.083 95.5447 116.182C95.5447 115.273 95.7095 114.479 96.0391 113.801C96.3724 113.123 96.8345 112.597 97.4254 112.222C98.0201 111.847 98.7114 111.659 99.4993 111.659C100.287 111.659 100.977 111.847 101.567 112.222C102.162 112.597 102.624 113.123 102.954 113.801C103.287 114.479 103.454 115.273 103.454 116.182C103.454 117.083 103.287 117.871 102.954 118.545C102.624 119.22 102.162 119.744 101.567 120.119C100.977 120.494 100.287 120.682 99.4993 120.682ZM99.4993 119.477C100.098 119.477 100.59 119.324 100.977 119.017C101.363 118.71 101.649 118.307 101.835 117.807C102.02 117.307 102.113 116.765 102.113 116.182C102.113 115.598 102.02 115.055 101.835 114.551C101.649 114.047 101.363 113.64 100.977 113.33C100.59 113.019 100.098 112.864 99.4993 112.864C98.9008 112.864 98.4084 113.019 98.022 113.33C97.6357 113.64 97.3497 114.047 97.1641 114.551C96.9785 115.055 96.8857 115.598 96.8857 116.182C96.8857 116.765 96.9785 117.307 97.1641 117.807C97.3497 118.307 97.6357 118.71 98.022 119.017C98.4084 119.324 98.9008 119.477 99.4993 119.477ZM111.001 116.932V111.773H112.342V120.5H111.001V119.023H110.91C110.705 119.466 110.387 119.843 109.955 120.153C109.523 120.46 108.978 120.614 108.319 120.614C107.773 120.614 107.289 120.494 106.864 120.256C106.44 120.013 106.107 119.65 105.864 119.165C105.622 118.676 105.501 118.061 105.501 117.318V111.773H106.842V117.227C106.842 117.864 107.02 118.371 107.376 118.75C107.736 119.129 108.194 119.318 108.751 119.318C109.084 119.318 109.423 119.233 109.768 119.062C110.116 118.892 110.408 118.631 110.643 118.278C110.881 117.926 111.001 117.477 111.001 116.932ZM114.798 120.5V111.773H116.093V113.091H116.184C116.343 112.659 116.631 112.309 117.048 112.04C117.464 111.771 117.934 111.636 118.457 111.636C118.555 111.636 118.678 111.638 118.826 111.642C118.974 111.646 119.085 111.652 119.161 111.659V113.023C119.116 113.011 119.012 112.994 118.849 112.972C118.69 112.945 118.521 112.932 118.343 112.932C117.919 112.932 117.54 113.021 117.207 113.199C116.877 113.373 116.616 113.616 116.423 113.926C116.233 114.233 116.138 114.583 116.138 114.977V120.5H114.798ZM128.546 120.682C127.819 120.682 127.177 120.498 126.62 120.131C126.063 119.759 125.628 119.237 125.313 118.562C124.999 117.884 124.842 117.083 124.842 116.159C124.842 115.242 124.999 114.447 125.313 113.773C125.628 113.098 126.065 112.578 126.626 112.21C127.186 111.843 127.834 111.659 128.569 111.659C129.137 111.659 129.586 111.754 129.915 111.943C130.249 112.129 130.503 112.341 130.677 112.58C130.855 112.814 130.993 113.008 131.092 113.159H131.205V108.864H132.546V120.5H131.251V119.159H131.092C130.993 119.318 130.853 119.519 130.671 119.761C130.489 120 130.23 120.214 129.893 120.403C129.556 120.589 129.107 120.682 128.546 120.682ZM128.728 119.477C129.266 119.477 129.72 119.337 130.092 119.057C130.463 118.773 130.745 118.381 130.938 117.881C131.131 117.377 131.228 116.795 131.228 116.136C131.228 115.485 131.133 114.915 130.944 114.426C130.754 113.934 130.474 113.551 130.103 113.278C129.732 113.002 129.273 112.864 128.728 112.864C128.16 112.864 127.686 113.009 127.308 113.301C126.933 113.589 126.65 113.981 126.461 114.477C126.275 114.97 126.183 115.523 126.183 116.136C126.183 116.758 126.277 117.322 126.467 117.83C126.66 118.333 126.944 118.735 127.319 119.034C127.698 119.33 128.167 119.477 128.728 119.477ZM135.188 120.5V111.773H136.484V113.091H136.575C136.734 112.659 137.022 112.309 137.438 112.04C137.855 111.771 138.325 111.636 138.847 111.636C138.946 111.636 139.069 111.638 139.217 111.642C139.364 111.646 139.476 111.652 139.552 111.659V113.023C139.506 113.011 139.402 112.994 139.239 112.972C139.08 112.945 138.912 112.932 138.734 112.932C138.309 112.932 137.931 113.021 137.597 113.199C137.268 113.373 137.006 113.616 136.813 113.926C136.624 114.233 136.529 114.583 136.529 114.977V120.5H135.188ZM144.535 120.682C143.694 120.682 142.969 120.496 142.359 120.125C141.753 119.75 141.285 119.227 140.955 118.557C140.629 117.883 140.467 117.098 140.467 116.205C140.467 115.311 140.629 114.523 140.955 113.841C141.285 113.155 141.743 112.621 142.33 112.239C142.921 111.852 143.611 111.659 144.398 111.659C144.853 111.659 145.302 111.735 145.745 111.886C146.188 112.038 146.592 112.284 146.955 112.625C147.319 112.962 147.609 113.409 147.825 113.966C148.04 114.523 148.148 115.208 148.148 116.023V116.591H141.421V115.432H146.785C146.785 114.939 146.686 114.5 146.489 114.114C146.296 113.727 146.02 113.422 145.66 113.199C145.304 112.975 144.883 112.864 144.398 112.864C143.864 112.864 143.402 112.996 143.012 113.261C142.626 113.523 142.328 113.864 142.12 114.284C141.912 114.705 141.808 115.155 141.808 115.636V116.409C141.808 117.068 141.921 117.627 142.148 118.085C142.379 118.54 142.7 118.886 143.109 119.125C143.518 119.36 143.993 119.477 144.535 119.477C144.887 119.477 145.205 119.428 145.489 119.33C145.777 119.227 146.025 119.076 146.234 118.875C146.442 118.67 146.603 118.417 146.717 118.114L148.012 118.477C147.876 118.917 147.647 119.303 147.325 119.636C147.003 119.966 146.605 120.223 146.131 120.409C145.658 120.591 145.126 120.682 144.535 120.682ZM152.756 120.705C152.203 120.705 151.701 120.6 151.251 120.392C150.8 120.18 150.442 119.875 150.177 119.477C149.912 119.076 149.779 118.591 149.779 118.023C149.779 117.523 149.878 117.117 150.075 116.807C150.272 116.492 150.535 116.246 150.864 116.068C151.194 115.89 151.558 115.758 151.955 115.67C152.357 115.58 152.76 115.508 153.165 115.455C153.696 115.386 154.126 115.335 154.455 115.301C154.789 115.263 155.031 115.201 155.183 115.114C155.338 115.027 155.415 114.875 155.415 114.659V114.614C155.415 114.053 155.262 113.617 154.955 113.307C154.652 112.996 154.192 112.841 153.575 112.841C152.934 112.841 152.433 112.981 152.069 113.261C151.705 113.542 151.45 113.841 151.302 114.159L150.029 113.705C150.256 113.174 150.559 112.761 150.938 112.466C151.321 112.167 151.737 111.958 152.188 111.841C152.643 111.72 153.09 111.659 153.529 111.659C153.809 111.659 154.131 111.693 154.495 111.761C154.862 111.826 155.217 111.96 155.558 112.165C155.902 112.369 156.188 112.678 156.415 113.091C156.643 113.504 156.756 114.057 156.756 114.75V120.5H155.415V119.318H155.347C155.256 119.508 155.105 119.71 154.893 119.926C154.681 120.142 154.398 120.326 154.046 120.477C153.694 120.629 153.264 120.705 152.756 120.705ZM152.961 119.5C153.491 119.5 153.938 119.396 154.302 119.188C154.669 118.979 154.946 118.71 155.131 118.381C155.321 118.051 155.415 117.705 155.415 117.341V116.114C155.359 116.182 155.234 116.244 155.04 116.301C154.851 116.354 154.631 116.402 154.381 116.443C154.135 116.481 153.895 116.515 153.66 116.545C153.429 116.572 153.241 116.595 153.097 116.614C152.749 116.659 152.423 116.733 152.12 116.835C151.821 116.934 151.578 117.083 151.393 117.284C151.211 117.481 151.12 117.75 151.12 118.091C151.12 118.557 151.292 118.909 151.637 119.148C151.986 119.383 152.427 119.5 152.961 119.5ZM159.204 120.5V111.773H160.499V113.136H160.613C160.795 112.67 161.088 112.309 161.494 112.051C161.899 111.79 162.386 111.659 162.954 111.659C163.53 111.659 164.009 111.79 164.391 112.051C164.778 112.309 165.079 112.67 165.295 113.136H165.386C165.609 112.686 165.944 112.328 166.391 112.062C166.838 111.794 167.374 111.659 167.999 111.659C168.78 111.659 169.418 111.903 169.914 112.392C170.41 112.877 170.658 113.633 170.658 114.659V120.5H169.317V114.659C169.317 114.015 169.141 113.555 168.789 113.278C168.437 113.002 168.022 112.864 167.545 112.864C166.931 112.864 166.456 113.049 166.119 113.42C165.781 113.788 165.613 114.254 165.613 114.818V120.5H164.249V114.523C164.249 114.027 164.088 113.627 163.766 113.324C163.444 113.017 163.03 112.864 162.522 112.864C162.174 112.864 161.848 112.956 161.545 113.142C161.246 113.328 161.003 113.585 160.817 113.915C160.636 114.241 160.545 114.617 160.545 115.045V120.5H159.204ZM179.292 113.727L178.087 114.068C178.012 113.867 177.9 113.672 177.752 113.483C177.608 113.29 177.411 113.131 177.161 113.006C176.911 112.881 176.591 112.818 176.201 112.818C175.667 112.818 175.222 112.941 174.866 113.188C174.513 113.43 174.337 113.739 174.337 114.114C174.337 114.447 174.459 114.71 174.701 114.903C174.943 115.097 175.322 115.258 175.837 115.386L177.133 115.705C177.913 115.894 178.495 116.184 178.877 116.574C179.26 116.96 179.451 117.458 179.451 118.068C179.451 118.568 179.307 119.015 179.019 119.409C178.735 119.803 178.337 120.114 177.826 120.341C177.315 120.568 176.72 120.682 176.042 120.682C175.152 120.682 174.415 120.489 173.832 120.102C173.248 119.716 172.879 119.152 172.724 118.409L173.996 118.091C174.118 118.561 174.347 118.913 174.684 119.148C175.025 119.383 175.47 119.5 176.019 119.5C176.644 119.5 177.14 119.367 177.508 119.102C177.879 118.833 178.065 118.511 178.065 118.136C178.065 117.833 177.959 117.58 177.746 117.375C177.534 117.167 177.209 117.011 176.769 116.909L175.315 116.568C174.515 116.379 173.928 116.085 173.553 115.688C173.182 115.286 172.996 114.784 172.996 114.182C172.996 113.689 173.135 113.254 173.411 112.875C173.692 112.496 174.072 112.199 174.553 111.983C175.038 111.767 175.587 111.659 176.201 111.659C177.065 111.659 177.743 111.848 178.235 112.227C178.731 112.606 179.084 113.106 179.292 113.727ZM189.515 120.682C188.697 120.682 187.992 120.489 187.401 120.102C186.81 119.716 186.356 119.184 186.038 118.506C185.719 117.828 185.56 117.053 185.56 116.182C185.56 115.295 185.723 114.513 186.049 113.835C186.379 113.153 186.837 112.621 187.424 112.239C188.015 111.852 188.704 111.659 189.492 111.659C190.106 111.659 190.659 111.773 191.151 112C191.644 112.227 192.047 112.545 192.362 112.955C192.676 113.364 192.871 113.841 192.947 114.386H191.606C191.504 113.989 191.276 113.636 190.924 113.33C190.576 113.019 190.106 112.864 189.515 112.864C188.992 112.864 188.534 113 188.14 113.273C187.75 113.542 187.445 113.922 187.225 114.415C187.009 114.903 186.901 115.477 186.901 116.136C186.901 116.811 187.007 117.398 187.219 117.898C187.435 118.398 187.738 118.786 188.129 119.062C188.522 119.339 188.985 119.477 189.515 119.477C189.863 119.477 190.18 119.417 190.464 119.295C190.748 119.174 190.988 119 191.185 118.773C191.382 118.545 191.522 118.273 191.606 117.955H192.947C192.871 118.47 192.683 118.934 192.384 119.347C192.089 119.756 191.697 120.081 191.208 120.324C190.723 120.562 190.159 120.682 189.515 120.682ZM198.452 120.682C197.665 120.682 196.973 120.494 196.379 120.119C195.788 119.744 195.326 119.22 194.992 118.545C194.663 117.871 194.498 117.083 194.498 116.182C194.498 115.273 194.663 114.479 194.992 113.801C195.326 113.123 195.788 112.597 196.379 112.222C196.973 111.847 197.665 111.659 198.452 111.659C199.24 111.659 199.93 111.847 200.521 112.222C201.115 112.597 201.577 113.123 201.907 113.801C202.24 114.479 202.407 115.273 202.407 116.182C202.407 117.083 202.24 117.871 201.907 118.545C201.577 119.22 201.115 119.744 200.521 120.119C199.93 120.494 199.24 120.682 198.452 120.682ZM198.452 119.477C199.051 119.477 199.543 119.324 199.93 119.017C200.316 118.71 200.602 118.307 200.788 117.807C200.973 117.307 201.066 116.765 201.066 116.182C201.066 115.598 200.973 115.055 200.788 114.551C200.602 114.047 200.316 113.64 199.93 113.33C199.543 113.019 199.051 112.864 198.452 112.864C197.854 112.864 197.362 113.019 196.975 113.33C196.589 113.64 196.303 114.047 196.117 114.551C195.932 115.055 195.839 115.598 195.839 116.182C195.839 116.765 195.932 117.307 196.117 117.807C196.303 118.307 196.589 118.71 196.975 119.017C197.362 119.324 197.854 119.477 198.452 119.477ZM204.454 120.5V111.773H205.749V113.136H205.863C206.045 112.67 206.338 112.309 206.744 112.051C207.149 111.79 207.636 111.659 208.204 111.659C208.78 111.659 209.259 111.79 209.641 112.051C210.028 112.309 210.329 112.67 210.545 113.136H210.636C210.859 112.686 211.194 112.328 211.641 112.062C212.088 111.794 212.624 111.659 213.249 111.659C214.03 111.659 214.668 111.903 215.164 112.392C215.66 112.877 215.908 113.633 215.908 114.659V120.5H214.567V114.659C214.567 114.015 214.391 113.555 214.039 113.278C213.687 113.002 213.272 112.864 212.795 112.864C212.181 112.864 211.706 113.049 211.369 113.42C211.031 113.788 210.863 114.254 210.863 114.818V120.5H209.499V114.523C209.499 114.027 209.338 113.627 209.016 113.324C208.694 113.017 208.28 112.864 207.772 112.864C207.424 112.864 207.098 112.956 206.795 113.142C206.496 113.328 206.253 113.585 206.067 113.915C205.886 114.241 205.795 114.617 205.795 115.045V120.5H204.454ZM222.019 120.682C221.178 120.682 220.453 120.496 219.843 120.125C219.237 119.75 218.769 119.227 218.44 118.557C218.114 117.883 217.951 117.098 217.951 116.205C217.951 115.311 218.114 114.523 218.44 113.841C218.769 113.155 219.228 112.621 219.815 112.239C220.406 111.852 221.095 111.659 221.883 111.659C222.337 111.659 222.786 111.735 223.229 111.886C223.673 112.038 224.076 112.284 224.44 112.625C224.803 112.962 225.093 113.409 225.309 113.966C225.525 114.523 225.633 115.208 225.633 116.023V116.591H218.906V115.432H224.269C224.269 114.939 224.171 114.5 223.974 114.114C223.781 113.727 223.504 113.422 223.144 113.199C222.788 112.975 222.368 112.864 221.883 112.864C221.349 112.864 220.887 112.996 220.496 113.261C220.11 113.523 219.813 113.864 219.604 114.284C219.396 114.705 219.292 115.155 219.292 115.636V116.409C219.292 117.068 219.406 117.627 219.633 118.085C219.864 118.54 220.184 118.886 220.593 119.125C221.002 119.36 221.478 119.477 222.019 119.477C222.371 119.477 222.69 119.428 222.974 119.33C223.262 119.227 223.51 119.076 223.718 118.875C223.926 118.67 224.087 118.417 224.201 118.114L225.496 118.477C225.36 118.917 225.131 119.303 224.809 119.636C224.487 119.966 224.089 120.223 223.616 120.409C223.142 120.591 222.61 120.682 222.019 120.682ZM235.968 111.773V112.909H231.445V111.773H235.968ZM232.763 109.682H234.104V118C234.104 118.379 234.159 118.663 234.269 118.852C234.383 119.038 234.527 119.163 234.701 119.227C234.879 119.288 235.067 119.318 235.263 119.318C235.411 119.318 235.532 119.311 235.627 119.295C235.722 119.277 235.798 119.261 235.854 119.25L236.127 120.455C236.036 120.489 235.909 120.523 235.746 120.557C235.584 120.595 235.377 120.614 235.127 120.614C234.748 120.614 234.377 120.532 234.013 120.369C233.654 120.206 233.354 119.958 233.116 119.625C232.881 119.292 232.763 118.871 232.763 118.364V109.682ZM237.985 120.5V111.773H239.281V113.091H239.371C239.531 112.659 239.818 112.309 240.235 112.04C240.652 111.771 241.121 111.636 241.644 111.636C241.743 111.636 241.866 111.638 242.013 111.642C242.161 111.646 242.273 111.652 242.349 111.659V113.023C242.303 113.011 242.199 112.994 242.036 112.972C241.877 112.945 241.709 112.932 241.531 112.932C241.106 112.932 240.728 113.021 240.394 113.199C240.065 113.373 239.803 113.616 239.61 113.926C239.421 114.233 239.326 114.583 239.326 114.977V120.5H237.985ZM249.438 116.932V111.773H250.779V120.5H249.438V119.023H249.347C249.143 119.466 248.825 119.843 248.393 120.153C247.961 120.46 247.415 120.614 246.756 120.614C246.211 120.614 245.726 120.494 245.302 120.256C244.878 120.013 244.544 119.65 244.302 119.165C244.059 118.676 243.938 118.061 243.938 117.318V111.773H245.279V117.227C245.279 117.864 245.457 118.371 245.813 118.75C246.173 119.129 246.631 119.318 247.188 119.318C247.522 119.318 247.861 119.233 248.205 119.062C248.554 118.892 248.845 118.631 249.08 118.278C249.319 117.926 249.438 117.477 249.438 116.932ZM256.894 120.682C256.053 120.682 255.328 120.496 254.718 120.125C254.112 119.75 253.644 119.227 253.315 118.557C252.989 117.883 252.826 117.098 252.826 116.205C252.826 115.311 252.989 114.523 253.315 113.841C253.644 113.155 254.103 112.621 254.69 112.239C255.281 111.852 255.97 111.659 256.758 111.659C257.212 111.659 257.661 111.735 258.104 111.886C258.548 112.038 258.951 112.284 259.315 112.625C259.678 112.962 259.968 113.409 260.184 113.966C260.4 114.523 260.508 115.208 260.508 116.023V116.591H253.781V115.432H259.144C259.144 114.939 259.046 114.5 258.849 114.114C258.656 113.727 258.379 113.422 258.019 113.199C257.663 112.975 257.243 112.864 256.758 112.864C256.224 112.864 255.762 112.996 255.371 113.261C254.985 113.523 254.688 113.864 254.479 114.284C254.271 114.705 254.167 115.155 254.167 115.636V116.409C254.167 117.068 254.281 117.627 254.508 118.085C254.739 118.54 255.059 118.886 255.468 119.125C255.877 119.36 256.353 119.477 256.894 119.477C257.246 119.477 257.565 119.428 257.849 119.33C258.137 119.227 258.385 119.076 258.593 118.875C258.801 118.67 258.962 118.417 259.076 118.114L260.371 118.477C260.235 118.917 260.006 119.303 259.684 119.636C259.362 119.966 258.964 120.223 258.491 120.409C258.017 120.591 257.485 120.682 256.894 120.682Z" fill="#1B1425"/>
<defs>
<clipPath id="clip0_14_2543">
<rect width="40" height="40" fill="white" transform="translate(127 9.5)"/>
</clipPath>
</defs>
</svg>
